<svg width="399" height="135" viewBox="0 0 399 135" fill="none" xmlns="http://www.w3.org/2000/svg">
<path d="M249.656 98.8633C245.787 98.5079 240.82 97.7589 236.021 92.5169V103.301C244.838 109.032 260.004 107.98 265.291 101.091C268.433 96.997 269.728 91.5126 267.401 85.3011C261.92 74.2597 248.895 73.5741 245.107 66.6019C240.922 55.3091 258.18 53.2687 266.472 60.8767V50.7397C262.94 48.458 257.322 48.2128 253.381 48.4258C242.981 48.9872 235.992 55.0301 236.096 64.0318C235.648 76.5972 249.997 79.8325 257.202 85.6475C262.095 89.7997 261.745 99.8692 249.656 98.8633V98.8633ZM208.594 106.065V57.2791H192.877V49.2119H233.017V57.2791H217.268V106.065H208.594V106.065ZM277.688 14.3125V116.688H175.312V14.3125H277.688ZM285 7H168V124H285V7Z" fill="#3178C6"/>
<path d="M397.954 50.5619C391.271 21.0344 375.474 11.3295 373.777 7.62C372.297 5.53508 370.975 2.57175 369.891 0C369.701 2.61937 369.601 3.62479 367.126 6.26533C363.304 9.26042 343.663 25.7493 342.066 59.2878C340.576 90.5722 364.641 109.215 367.909 111.591L368.279 111.855C368.959 116.892 369.541 121.941 370.023 127H372.566C373.169 121.54 374.069 116.116 375.263 110.755C377.467 109.188 378.456 108.305 379.757 107.087C385.916 101.385 390.81 94.4515 394.124 86.7364C397.438 79.0214 399.098 70.6961 398.996 62.2988C399.048 57.9914 398.451 53.504 397.954 50.5619V50.5619ZM369.743 93.9271C369.743 93.9271 369.743 50.0539 371.197 50.0592C372.323 50.0592 373.788 106.654 373.788 106.654C371.773 106.415 369.743 97.3402 369.743 93.9271Z" fill="#12934B"/>
<path d="M59.8589 135C58.0377 135.001 56.2484 134.522 54.671 133.611L38.1622 123.838C35.6984 122.459 36.8989 121.972 37.7138 121.688C40.3341 120.878 42.8431 119.745 45.1823 118.313C45.3781 118.222 45.5937 118.183 45.8089 118.199C46.024 118.215 46.2315 118.286 46.4118 118.404L59.0971 125.94C59.3333 126.065 59.5965 126.131 59.8637 126.131C60.1309 126.131 60.3941 126.065 60.6303 125.94L110.099 97.3875C110.33 97.2488 110.522 97.0524 110.655 96.8174C110.787 96.5824 110.857 96.317 110.856 96.0471V38.9317C110.856 38.6576 110.786 38.388 110.651 38.149C110.517 37.91 110.323 37.7097 110.089 37.5672L60.6207 9.03843C60.3874 8.90705 60.1242 8.83803 59.8565 8.83803C59.5888 8.83803 59.3256 8.90705 59.0923 9.03843L9.65267 37.5769C9.41684 37.7163 9.22103 37.9143 9.08418 38.1517C8.94734 38.3891 8.87411 38.6577 8.87159 38.9317V96.023C8.87226 96.2923 8.9445 96.5565 9.0809 96.7886C9.21731 97.0208 9.41297 97.2125 9.64785 97.3441L23.2155 105.174C30.5683 108.848 35.0716 104.518 35.0716 100.17V43.8014C35.0716 43.4178 35.224 43.0499 35.4952 42.7786C35.7665 42.5073 36.1344 42.355 36.518 42.355H42.786C43.1696 42.355 43.5375 42.5073 43.8088 42.7786C44.08 43.0499 44.2324 43.4178 44.2324 43.8014V100.174C44.2324 109.986 38.8902 115.603 29.5847 115.603C25.5702 115.673 21.6187 114.599 18.1915 112.508L5.18796 105.049C3.60935 104.13 2.29949 102.812 1.38914 101.228C0.478801 99.6447 -0.000174762 97.8498 3.42896e-05 96.023V38.9317C-0.00465792 37.1021 0.472291 35.3035 1.38295 33.7166C2.29362 32.1297 3.60591 30.8104 5.18796 29.8914L54.6613 1.32886C56.255 0.456975 58.0423 0 59.8589 0C61.6755 0 63.4628 0.456975 65.0565 1.32886L114.525 29.8914C116.103 30.8089 117.414 32.1243 118.325 33.7064C119.236 35.2885 119.716 37.0819 119.718 38.9076V96.023C119.715 97.8498 119.234 99.644 118.323 101.227C117.412 102.811 116.103 104.128 114.525 105.049L65.0565 133.611C63.4762 134.523 61.6834 135.002 59.8589 135V135Z" fill="#83CD29"/>
<path d="M50.4762 76.9155C50.4762 76.5319 50.6286 76.164 50.8999 75.8927C51.1711 75.6214 51.5391 75.469 51.9227 75.469H58.3208C58.6627 75.4702 58.9931 75.5923 59.2534 75.8138C59.5138 76.0354 59.6873 76.342 59.7431 76.6792C60.7074 83.1931 63.6003 86.4765 76.6811 86.4765C87.1003 86.4765 91.5409 84.1188 91.5409 78.5886C91.5409 75.4015 90.2825 73.0342 74.0871 71.4479C60.5483 70.1075 52.1782 67.1086 52.1782 56.2891C52.1782 46.3086 60.5917 40.3541 74.6946 40.3541C90.5428 40.3541 98.3874 45.8554 99.3807 57.6584C99.3958 57.8555 99.3704 58.0536 99.3061 58.2404C99.2418 58.4273 99.1398 58.599 99.0065 58.7449C98.8732 58.8909 98.7115 59.0079 98.5312 59.0889C98.3509 59.1699 98.1559 59.2131 97.9583 59.2158H91.5168C91.1936 59.2113 90.8813 59.0986 90.6296 58.8959C90.378 58.6932 90.2014 58.412 90.1282 58.0972C88.5901 51.2459 84.8246 49.0569 74.6994 49.0569C63.3207 49.0569 61.9996 53.0202 61.9996 55.9902C61.9996 59.587 63.5618 60.6381 78.9231 62.668C94.1252 64.6785 101.348 67.5232 101.348 78.2077C101.348 88.9885 92.3606 95.16 76.6859 95.16C55.0133 95.189 50.4762 85.2519 50.4762 76.9155V76.9155Z" fill="#83CD29"/>
</svg>
